<mxfile host="app.diagrams.net" modified="2022-05-02T15:51:32.778Z" agent="5.0 (Windows NT 10.0; Win64; x64) AppleWebKit/537.36 (KHTML, like Gecko) Chrome/100.0.4896.127 Safari/537.36" etag="EDFfDsr2QCYmdOKw6Ma7" version="17.5.0" type="github">
  <diagram id="gQ61gNUYz-c1vmjMEYWE" name="Page-1">
    <mxGraphModel dx="1487" dy="1840" grid="1" gridSize="10" guides="1" tooltips="1" connect="1" arrows="1" fold="1" page="1" pageScale="1" pageWidth="850" pageHeight="1100" math="1" shadow="0">
      <root>
        <mxCell id="0" />
        <mxCell id="1" parent="0" />
        <mxCell id="XOX50ztPG79LzL4W2d4P-1" value="&lt;font style=&quot;font-size: 40px&quot;&gt;$$P_ \mathcal{G}=\sum^{\small {STOP}} _{\small {g=START}}[x]x \Delta U_{g_i}$$&lt;/font&gt;" style="text;html=1;align=center;verticalAlign=middle;resizable=0;points=[];autosize=1;strokeColor=none;fillColor=none;" vertex="1" parent="1">
          <mxGeometry x="-555" y="85" width="1470" height="30" as="geometry" />
        </mxCell>
        <mxCell id="XOX50ztPG79LzL4W2d4P-2" value="" style="shape=partialRectangle;whiteSpace=wrap;html=1;bottom=1;right=1;left=1;top=0;fillColor=none;routingCenterX=-0.5;fontSize=40;dashed=1;" vertex="1" parent="1">
          <mxGeometry x="320" y="115" width="100" height="35" as="geometry" />
        </mxCell>
        <mxCell id="XOX50ztPG79LzL4W2d4P-3" value="" style="shape=partialRectangle;whiteSpace=wrap;html=1;bottom=1;right=1;left=1;top=0;fillColor=none;routingCenterX=-0.5;fontSize=40;dashed=1;rotation=-180;" vertex="1" parent="1">
          <mxGeometry x="230" y="60" width="80" height="15" as="geometry" />
        </mxCell>
        <mxCell id="XOX50ztPG79LzL4W2d4P-4" value="" style="shape=partialRectangle;whiteSpace=wrap;html=1;bottom=1;right=1;left=1;top=0;fillColor=none;routingCenterX=-0.5;fontSize=40;dashed=1;rotation=0;" vertex="1" parent="1">
          <mxGeometry x="-70" y="110" width="70" height="15" as="geometry" />
        </mxCell>
        <mxCell id="XOX50ztPG79LzL4W2d4P-5" value="" style="endArrow=none;dashed=1;html=1;rounded=0;fontSize=40;" edge="1" parent="1">
          <mxGeometry width="50" height="50" relative="1" as="geometry">
            <mxPoint x="269.5" y="60" as="sourcePoint" />
            <mxPoint x="269.5" y="-20" as="targetPoint" />
          </mxGeometry>
        </mxCell>
        <mxCell id="XOX50ztPG79LzL4W2d4P-7" value="OBSERVING&lt;br&gt;&amp;nbsp; &amp;nbsp; &amp;nbsp; &amp;nbsp; &amp;nbsp; &amp;nbsp; &amp;nbsp; &amp;nbsp; &amp;nbsp; &amp;nbsp; &amp;nbsp; &amp;nbsp; &amp;nbsp; &amp;nbsp; &amp;nbsp; &amp;nbsp; &amp;nbsp; SENTIENT" style="text;html=1;align=center;verticalAlign=middle;resizable=0;points=[];autosize=1;strokeColor=none;fillColor=none;fontSize=25;" vertex="1" parent="1">
          <mxGeometry x="30" y="-60" width="380" height="70" as="geometry" />
        </mxCell>
        <mxCell id="XOX50ztPG79LzL4W2d4P-8" value="L" style="text;html=1;align=center;verticalAlign=middle;resizable=0;points=[];autosize=1;strokeColor=none;fillColor=none;fontSize=25;" vertex="1" parent="1">
          <mxGeometry x="-50" y="120" width="30" height="40" as="geometry" />
        </mxCell>
        <mxCell id="XOX50ztPG79LzL4W2d4P-9" value="&lt;div style=&quot;text-align: left&quot;&gt;&lt;span&gt;-VARIATION&lt;/span&gt;&lt;/div&gt;&lt;div style=&quot;text-align: left&quot;&gt;&lt;span&gt;to UNIVERSE&lt;/span&gt;&lt;/div&gt;&lt;div style=&quot;text-align: left&quot;&gt;&lt;span&gt;due to GAME-INSTANCE&lt;/span&gt;&lt;/div&gt;&lt;div style=&quot;text-align: left&quot;&gt;&lt;span&gt;&amp;nbsp; &amp;nbsp; &amp;nbsp; &amp;nbsp; &amp;nbsp; &amp;nbsp; &amp;nbsp; &amp;nbsp; g&lt;/span&gt;&lt;/div&gt;" style="text;html=1;align=center;verticalAlign=middle;resizable=0;points=[];autosize=1;strokeColor=none;fillColor=none;fontSize=25;" vertex="1" parent="1">
          <mxGeometry x="500" y="180" width="300" height="130" as="geometry" />
        </mxCell>
        <mxCell id="XOX50ztPG79LzL4W2d4P-10" value="" style="endArrow=none;html=1;rounded=0;fontSize=25;" edge="1" parent="1">
          <mxGeometry width="50" height="50" relative="1" as="geometry">
            <mxPoint x="490" y="180" as="sourcePoint" />
            <mxPoint x="710" y="180" as="targetPoint" />
          </mxGeometry>
        </mxCell>
        <mxCell id="XOX50ztPG79LzL4W2d4P-11" value="" style="endArrow=none;html=1;rounded=0;fontSize=25;" edge="1" parent="1">
          <mxGeometry width="50" height="50" relative="1" as="geometry">
            <mxPoint x="490" y="310" as="sourcePoint" />
            <mxPoint x="710" y="310" as="targetPoint" />
          </mxGeometry>
        </mxCell>
        <mxCell id="XOX50ztPG79LzL4W2d4P-12" value="" style="endArrow=none;dashed=1;html=1;fontSize=25;exitX=0.5;exitY=1;exitDx=0;exitDy=0;entryX=0.001;entryY=0.179;entryDx=0;entryDy=0;entryPerimeter=0;curved=1;" edge="1" parent="1" source="XOX50ztPG79LzL4W2d4P-2" target="XOX50ztPG79LzL4W2d4P-9">
          <mxGeometry width="50" height="50" relative="1" as="geometry">
            <mxPoint x="450" y="140" as="sourcePoint" />
            <mxPoint x="500" y="90" as="targetPoint" />
            <Array as="points">
              <mxPoint x="400" y="210" />
            </Array>
          </mxGeometry>
        </mxCell>
        <mxCell id="XOX50ztPG79LzL4W2d4P-13" value="the Potential of&amp;nbsp;&lt;br&gt;KNOWN-GAPES" style="text;html=1;align=center;verticalAlign=middle;resizable=0;points=[];autosize=1;strokeColor=none;fillColor=none;fontSize=25;" vertex="1" parent="1">
          <mxGeometry x="-70" y="180" width="210" height="70" as="geometry" />
        </mxCell>
        <mxCell id="XOX50ztPG79LzL4W2d4P-15" value="$$\mathcal{G}$$" style="text;html=1;align=center;verticalAlign=middle;resizable=0;points=[];autosize=1;strokeColor=none;fillColor=none;fontSize=25;" vertex="1" parent="1">
          <mxGeometry x="45" y="210" width="200" height="40" as="geometry" />
        </mxCell>
        <mxCell id="XOX50ztPG79LzL4W2d4P-16" value="&lt;font style=&quot;font-size: 40px&quot;&gt;BATNA&lt;/font&gt;" style="text;html=1;align=center;verticalAlign=middle;resizable=0;points=[];autosize=1;strokeColor=none;fillColor=none;fontSize=25;" vertex="1" parent="1">
          <mxGeometry x="30" y="260" width="150" height="40" as="geometry" />
        </mxCell>
        <mxCell id="XOX50ztPG79LzL4W2d4P-17" value="" style="rounded=0;whiteSpace=wrap;html=1;fontSize=40;fillColor=none;strokeColor=#0000FF;strokeWidth=2;" vertex="1" parent="1">
          <mxGeometry x="30" y="250" width="150" height="60" as="geometry" />
        </mxCell>
        <mxCell id="XOX50ztPG79LzL4W2d4P-18" value="&lt;font color=&quot;#0000ff&quot;&gt;(+)&lt;/font&gt;" style="text;html=1;align=center;verticalAlign=middle;resizable=0;points=[];autosize=1;strokeColor=none;fillColor=none;fontSize=40;" vertex="1" parent="1">
          <mxGeometry x="165" y="202" width="70" height="50" as="geometry" />
        </mxCell>
      </root>
    </mxGraphModel>
  </diagram>
</mxfile>
